<svg viewBox="0 0 512 512" xml:space="preserve" xmlns="http://www.w3.org/2000/svg"><path d="M433.8 205.2h-25.4v-50.8C408.4 70.4 340 2 256 2S103.6 70.4 103.6 154.4v50.8H78.2c-14 0-25.4 11.4-25.4 25.4v254c0 14 11.4 25.4 25.4 25.4h355.6c14 0 25.4-11.4 25.4-25.4v-254c0-14-11.4-25.4-25.4-25.4zM305.6 453.1c.6 3.1-1.8 6.1-5 6.1h-89.2c-3.2 0-5.6-2.9-5-6.1l20.3-101.4c.4-1.9-.4-3.7-1.9-4.8-11.9-9.3-19.6-23.8-19.6-40.1 0-28.1 22.7-50.8 50.8-50.8 28.1 0 50.8 22.7 50.8 50.8 0 16.3-7.7 30.8-19.6 40.1-1.5 1.2-2.3 3-1.9 4.8l20.3 101.4zm52-247.9H154.4v-50.8c0-56 45.6-101.6 101.6-101.6 56 0 101.6 45.6 101.6 101.6v50.8z" fill="#ffffff" class="fill-000000"></path></svg>