<svg viewBox="0 0 24 24" xmlns="http://www.w3.org/2000/svg"><path d="M22 3H2a2.002 2.002 0 0 0-2 2v14a2.002 2.002 0 0 0 2 2h20a2.002 2.002 0 0 0 2-2V5a2.002 2.002 0 0 0-2-2Zm-5.227 13.116a.5.5 0 0 1-.925-.38 1.983 1.983 0 0 0 0-1.522.5.5 0 0 1 .925-.381 2.982 2.982 0 0 1 0 2.283Zm1.848.761a.5.5 0 1 1-.925-.38 3.965 3.965 0 0 0 0-3.044.5.5 0 1 1 .925-.381 4.967 4.967 0 0 1 0 3.805Zm1.851.763a.5.5 0 0 1-.925-.381 5.99 5.99 0 0 0 0-4.569.5.5 0 0 1 .925-.38 6.992 6.992 0 0 1 0 5.33ZM23 10H1V6h22Z" fill="#fffafa" class="fill-000000"></path></svg>