<svg viewBox="0 0 50 50" xml:space="preserve" xmlns="http://www.w3.org/2000/svg"><path fill="none" d="M0 0h50v50H0z"></path><g fill="none" stroke="#fcf7f7" stroke-linecap="round" stroke-miterlimit="10" stroke-width="2" class="stroke-000000"><path d="M10.324 33.746h13.963v11.107H12.103c-2.047-.041-3.426-1.652-4.208-2.836"></path><path d="M7.895 42.018c-.782-1.185-5.345-9.534-6.282-10.957-.938-1.421-.646-3.45-.137-4.33l3.546-6.014-1.759-1.016 9.423-1.155 3.714 8.739-1.759-1.016L8.23 37.374c-.761 1.319-1.227 3.396-.335 4.644zM39.778 33.751l-6.982-12.094 9.619-5.554 6.094 10.555c.987 1.793.283 3.793-.353 5.062"></path><path d="M48.156 31.72c-.636 1.27-5.585 9.394-6.348 10.917-.761 1.523-2.665 2.285-3.681 2.285l-6.981-.063-.001 2.031-5.713-7.585 5.714-7.585v2.031h12.82c1.524 0 3.555-.635 4.19-2.031zM31.736 2.039c1.699-.102 3.311 1.167 3.819 2.046l3.436 6.078 1.758-1.015-3.711 8.739-9.425-1.154 1.759-1.016-4.307-7.461"></path><path d="M19.108 2c-1.418.084-3.502.474-4.562 2.225L8.454 14.779l9.619 5.555 8.945-15.5c.824-1.43 2.67-2.804 4.718-2.795-2.108.05-7.051-.02-12.628-.039z"></path></g></svg>