<svg viewBox="0 0 64 64" xmlns="http://www.w3.org/2000/svg"><path d="M33.333 10.333 30.011 5h-4.679A6.1 6.1 0 0 0 20.1 7.962L17 13l11 7Z" fill="#ffffff" class="fill-6a9923"></path><path d="M50.849 14.613 47 8a5.635 5.635 0 0 0-5-3H30.011L39 22l-5 3 14.882 1.693L56 12Z" fill="#ffffff" class="fill-88b337"></path><path d="m57 26-12 7 5 9h8l2.09-3.375a6.1 6.1 0 0 0 .142-6.169Z" fill="#ffffff" class="fill-6a9923"></path><path d="M38 42v-5L28 48l10 13v-4h8a5.447 5.447 0 0 0 5-3l7-12Z" fill="#ffffff" class="fill-88b337"></path><path d="m13 43-2.435 5.612 3.043 5.271A6.345 6.345 0 0 0 19 57h4V43Z" fill="#ffffff" class="fill-6a9923"></path><path d="m25 34-6-13-16 1 5.719 3.546L5 33a6.188 6.188 0 0 0 0 6l5.564 9.612L12.646 45l7.432-12.9Z" fill="#ffffff" class="fill-88b337"></path></svg>